<svg width="14" height="14" viewBox="0 0 14 14" fill="none" xmlns="http://www.w3.org/2000/svg">
<path d="M6.06242 13.0838L0.562419 7.58381C0.479085 7.50047 0.419918 7.4102 0.384918 7.31298C0.350474 7.21575 0.333252 7.11159 0.333252 7.00048C0.333252 6.88936 0.350474 6.7852 0.384918 6.68798C0.419918 6.59075 0.479085 6.50048 0.562419 6.41714L6.06242 0.917142C6.2152 0.764364 6.40603 0.684365 6.63492 0.677142C6.86436 0.670476 7.06242 0.750475 7.22908 0.917142C7.39575 1.06992 7.4827 1.26075 7.48992 1.48964C7.49659 1.71909 7.41659 1.91714 7.24992 2.08381L3.16659 6.16714H12.4791C12.7152 6.16714 12.9133 6.24686 13.0733 6.40631C13.2327 6.56631 13.3124 6.76436 13.3124 7.00048C13.3124 7.23659 13.2327 7.43436 13.0733 7.59381C12.9133 7.75381 12.7152 7.83381 12.4791 7.83381H3.16659L7.24992 11.9171C7.4027 12.0699 7.4827 12.2644 7.48992 12.5005C7.49659 12.7366 7.41659 12.931 7.24992 13.0838C7.09714 13.2505 6.9027 13.3338 6.66659 13.3338C6.43047 13.3338 6.22908 13.2505 6.06242 13.0838Z" fill="white"/>
</svg>
