<svg width="30" height="28" viewBox="0 0 30 28" fill="none" xmlns="http://www.w3.org/2000/svg">
<path d="M14.2309 3.78407L14.229 3.78549C14.0304 3.93323 13.8367 4.09836 13.6452 4.27836L14.2309 3.78407ZM14.2309 3.78407C15.0991 3.12921 16.0495 2.73626 16.9566 2.61744L16.9572 2.61735C18.0762 2.46869 19.1298 2.74866 19.8272 3.48949L19.8274 3.48964C20.4787 4.18069 20.7112 5.15788 20.5628 6.18753L20.5145 6.5222L20.8462 6.58796C21.2521 6.66843 21.6383 6.85024 21.9746 7.13593C22.6366 7.70006 22.9362 8.52658 22.8445 9.32983L22.8229 9.51882L22.9679 9.64194L24.7667 11.1694L24.843 12.1765L24.8702 12.5347L25.2282 12.5047L26.0244 12.4379L26.0853 13.2297L26.1128 13.5875L26.4705 13.5575L27.2663 13.4907L27.3267 14.2879L27.354 14.6473L27.713 14.6161L28.5055 14.5471L28.6272 16.1409L26.822 16.2952L21.3003 11.6008L21.1558 11.478L20.9732 11.5292C20.1936 11.7478 19.3302 11.5865 18.6717 11.0265L18.6715 11.0263C17.8103 10.295 17.5644 9.11407 17.9864 8.11686M14.2309 3.78407L17.9864 8.11686M11.7856 7.48167L11.7855 7.48239C11.5693 8.59012 11.7833 9.65867 12.4819 10.401L12.4824 10.4015C13.0166 10.9715 13.7622 11.2689 14.5909 11.3083C14.588 11.2853 14.5852 11.2625 14.5827 11.2398C13.7641 11.2145 13.0342 10.9302 12.5111 10.3715C11.8424 9.66165 11.6422 8.64173 11.8513 7.55549L11.8515 7.55463L11.8515 7.55463C12.0644 6.46264 12.7038 5.30138 13.7128 4.35239L11.7856 7.48167ZM11.7856 7.48167C11.9987 6.3776 12.6316 5.23222 13.6451 4.27848L11.7856 7.48167ZM17.0243 2.68783L17.0252 2.68772C18.1223 2.5451 19.1284 2.80865 19.7948 3.51493L19.7956 3.51577C20.4466 4.21016 20.6621 5.19784 20.4747 6.25323L20.4267 6.52385L20.1527 6.54615C19.8779 6.56852 19.6097 6.63487 19.358 6.74161C19.5431 6.70616 19.7323 6.70068 19.9168 6.72464L20.365 6.78283L20.2039 7.2051C20.0984 7.48174 19.9621 7.75517 19.8109 8.02008L19.7391 8.1457L19.6001 8.1858C19.5865 8.18972 19.5631 8.1999 19.5228 8.22986L19.5141 8.23639L19.5136 8.23698L19.5027 8.24718C19.4076 8.33636 19.3916 8.46602 19.4483 8.56881L19.4537 8.57847L19.4583 8.58824C19.4584 8.58845 19.4599 8.59126 19.464 8.59747C19.4658 8.60016 19.4677 8.60292 19.4699 8.60598C19.4773 8.61367 19.4831 8.62034 19.4875 8.62537C19.4918 8.63035 19.4958 8.63525 19.4994 8.63979C19.6086 8.74498 19.7665 8.74519 19.8758 8.64167L19.8762 8.64134C19.9698 8.55296 19.9856 8.42523 19.9348 8.32872L19.845 8.15816L19.9385 7.98964C20.0693 7.75424 20.1792 7.5206 20.2699 7.28284L20.4553 6.79688L20.8416 7.14519L20.8454 7.14866C20.8743 7.17467 20.9163 7.21249 20.9559 7.25573C21.6096 7.95159 21.5736 9.05688 20.8796 9.7109L17.0243 2.68783ZM17.0243 2.68783C15.9215 2.83383 14.7215 3.40312 13.7129 4.35231L17.0243 2.68783ZM18.7022 7.14784L18.6376 7.06104C18.6371 7.06146 18.6365 7.06188 18.636 7.0623C18.6355 7.06268 18.635 7.06307 18.6344 7.06345L18.7001 7.14966M18.7022 7.14784C18.7015 7.14844 18.7008 7.14905 18.7001 7.14966M18.7022 7.14784L18.8504 7.34698M18.7022 7.14784L18.8504 7.34698M18.7001 7.14966L18.8504 7.34698M18.7001 7.14966C18.6604 7.18382 18.6215 7.21918 18.5832 7.25592C18.5817 7.25734 18.5802 7.25877 18.5787 7.26019C18.517 7.31963 18.4568 7.38266 18.3973 7.45006M18.8504 7.34698L18.3176 7.37798L18.3995 7.44742C18.3988 7.4483 18.398 7.44918 18.3973 7.45006M18.3973 7.45006C18.2227 7.65655 18.0859 7.88159 17.9864 8.11686M18.3973 7.45006L17.9864 8.11686M17.9864 8.11686C17.8864 8.6456 18.0303 9.21399 18.425 9.6333C19.0773 10.3323 20.1881 10.3633 20.8796 9.71093L17.9864 8.11686ZM19.2303 8.87441C19.4738 9.13149 19.8638 9.14389 20.1209 8.90046L19.2303 8.87441ZM20.5753 16.4076L21.2613 16.8131L20.8485 17.4936L20.6621 17.8008L20.9708 17.9847L21.6551 18.3923L21.2416 19.0738L21.0547 19.382L21.365 19.5655L22.0515 19.9713L21.2234 21.3416L19.6659 20.4174L17.9067 13.3943L17.8606 13.2106L17.6825 13.1459C16.9166 12.8679 16.306 12.2357 16.0946 11.3933L16.0945 11.3927C15.9292 10.7391 16.0368 10.0807 16.3478 9.53688C16.4524 10.5148 16.9141 11.4555 17.7182 12.1429L17.7192 12.1437C18.5176 12.821 19.507 13.128 20.4788 13.0806L20.9723 15.0516L20.4514 15.9169L20.2661 16.2247L20.5753 16.4076Z" fill="#F3F5FF" stroke="#797FB9" stroke-width="0.712786"/>
<mask id="path-2-inside-1_564_923" fill="white">
<path d="M1.313 4.59809C0.964774 4.74535 0.689303 5.02491 0.547192 5.37527C0.405081 5.72563 0.407971 6.11809 0.555226 6.46632L4.99703 16.9704C5.14429 17.3186 5.42385 17.5941 5.77421 17.7362C6.12457 17.8783 6.51703 17.8754 6.86526 17.7281L14.7433 14.3968C15.0915 14.2495 15.367 13.97 15.5091 13.6196C15.6512 13.2692 15.6483 12.8768 15.5011 12.5285L11.0593 2.02452C10.912 1.67629 10.6324 1.40082 10.2821 1.2587C9.93172 1.11659 9.53926 1.11948 9.19103 1.26674L1.313 4.59809ZM6.08485 4.90192C6.95543 4.53378 7.93659 4.52656 8.81249 4.88184C9.6884 5.23711 10.3873 5.92579 10.7554 6.79637C11.1236 7.66694 11.1308 8.6481 10.7755 9.52401C10.4202 10.3999 9.73156 11.0988 8.86098 11.4669C7.99041 11.8351 7.00925 11.8423 6.13334 11.487C5.25744 11.1318 4.55855 10.4431 4.19041 9.5725C3.82227 8.70192 3.81505 7.72076 4.17032 6.84486C4.5256 5.96895 5.21428 5.27006 6.08485 4.90192ZM6.36247 5.55842C6.26542 6.07928 6.22821 6.61352 6.28745 7.13794L7.54794 6.60492C7.20897 6.19718 6.80911 5.84419 6.36247 5.55842ZM5.57009 6.06375C5.05217 6.52267 4.71777 7.15937 4.6462 7.83197L5.60469 7.42665C5.55074 6.96965 5.5286 6.51468 5.57009 6.06375ZM7.27043 5.34473C7.62284 5.62909 7.94041 5.95914 8.2307 6.3162L9.18919 5.91089C8.65678 5.49369 7.96325 5.29941 7.27043 5.34473ZM4.65464 8.60229C4.69096 8.83458 4.74975 9.06511 4.84691 9.29488C4.94408 9.52466 5.06851 9.72743 5.20987 9.9153L6.31936 9.44613C6.20149 9.24059 6.09018 9.03227 5.99579 8.80906C5.9014 8.58585 5.82948 8.36088 5.76413 8.13313L4.65464 8.60229ZM6.4272 7.85274C6.48321 8.0767 6.5579 8.30824 6.65229 8.53145C6.74668 8.75466 6.85799 8.96298 6.98243 9.16574L8.51864 8.51613C8.45329 8.28838 8.38794 8.06063 8.29355 7.83742C8.19916 7.61421 8.07851 7.4021 7.96341 7.20312L6.4272 7.85274ZM8.62648 6.92273C8.74435 7.12828 8.85566 7.33659 8.95005 7.5598C9.04444 7.78301 9.11636 8.00799 9.18171 8.23574L10.2912 7.76657C10.2549 7.53428 10.1961 7.30376 10.0989 7.07398C10.0018 6.84421 9.87733 6.64144 9.73597 6.45357L8.62648 6.92273ZM5.75665 10.458C6.28906 10.8752 6.97603 11.0722 7.66884 11.0269C7.31643 10.7425 7.00821 10.4163 6.71514 10.0527L5.75665 10.458ZM7.3979 9.76395C7.73565 10.1783 8.14209 10.5172 8.58337 10.8104C8.68698 10.2868 8.7204 9.76191 8.65839 9.23093L7.3979 9.76395ZM9.34115 8.94221C9.39788 9.40578 9.41067 9.85696 9.36918 10.3079C9.88433 9.8424 10.2281 9.20949 10.2996 8.5369L9.34115 8.94221ZM6.1337 14.168L12.6987 11.3919L13.2539 12.7049L6.68893 15.481L6.1337 14.168Z"/>
</mask>
<path d="M1.313 4.59809C0.964774 4.74535 0.689303 5.02491 0.547192 5.37527C0.405081 5.72563 0.407971 6.11809 0.555226 6.46632L4.99703 16.9704C5.14429 17.3186 5.42385 17.5941 5.77421 17.7362C6.12457 17.8783 6.51703 17.8754 6.86526 17.7281L14.7433 14.3968C15.0915 14.2495 15.367 13.97 15.5091 13.6196C15.6512 13.2692 15.6483 12.8768 15.5011 12.5285L11.0593 2.02452C10.912 1.67629 10.6324 1.40082 10.2821 1.2587C9.93172 1.11659 9.53926 1.11948 9.19103 1.26674L1.313 4.59809ZM6.08485 4.90192C6.95543 4.53378 7.93659 4.52656 8.81249 4.88184C9.6884 5.23711 10.3873 5.92579 10.7554 6.79637C11.1236 7.66694 11.1308 8.6481 10.7755 9.52401C10.4202 10.3999 9.73156 11.0988 8.86098 11.4669C7.99041 11.8351 7.00925 11.8423 6.13334 11.487C5.25744 11.1318 4.55855 10.4431 4.19041 9.5725C3.82227 8.70192 3.81505 7.72076 4.17032 6.84486C4.5256 5.96895 5.21428 5.27006 6.08485 4.90192ZM6.36247 5.55842C6.26542 6.07928 6.22821 6.61352 6.28745 7.13794L7.54794 6.60492C7.20897 6.19718 6.80911 5.84419 6.36247 5.55842ZM5.57009 6.06375C5.05217 6.52267 4.71777 7.15937 4.6462 7.83197L5.60469 7.42665C5.55074 6.96965 5.5286 6.51468 5.57009 6.06375ZM7.27043 5.34473C7.62284 5.62909 7.94041 5.95914 8.2307 6.3162L9.18919 5.91089C8.65678 5.49369 7.96325 5.29941 7.27043 5.34473ZM4.65464 8.60229C4.69096 8.83458 4.74975 9.06511 4.84691 9.29488C4.94408 9.52466 5.06851 9.72743 5.20987 9.9153L6.31936 9.44613C6.20149 9.24059 6.09018 9.03227 5.99579 8.80906C5.9014 8.58585 5.82948 8.36088 5.76413 8.13313L4.65464 8.60229ZM6.4272 7.85274C6.48321 8.0767 6.5579 8.30824 6.65229 8.53145C6.74668 8.75466 6.85799 8.96298 6.98243 9.16574L8.51864 8.51613C8.45329 8.28838 8.38794 8.06063 8.29355 7.83742C8.19916 7.61421 8.07851 7.4021 7.96341 7.20312L6.4272 7.85274ZM8.62648 6.92273C8.74435 7.12828 8.85566 7.33659 8.95005 7.5598C9.04444 7.78301 9.11636 8.00799 9.18171 8.23574L10.2912 7.76657C10.2549 7.53428 10.1961 7.30376 10.0989 7.07398C10.0018 6.84421 9.87733 6.64144 9.73597 6.45357L8.62648 6.92273ZM5.75665 10.458C6.28906 10.8752 6.97603 11.0722 7.66884 11.0269C7.31643 10.7425 7.00821 10.4163 6.71514 10.0527L5.75665 10.458ZM7.3979 9.76395C7.73565 10.1783 8.14209 10.5172 8.58337 10.8104C8.68698 10.2868 8.7204 9.76191 8.65839 9.23093L7.3979 9.76395ZM9.34115 8.94221C9.39788 9.40578 9.41067 9.85696 9.36918 10.3079C9.88433 9.8424 10.2281 9.20949 10.2996 8.5369L9.34115 8.94221ZM6.1337 14.168L12.6987 11.3919L13.2539 12.7049L6.68893 15.481L6.1337 14.168Z" fill="#F3F5FF"/>
<path d="M1.313 4.59809L1.03539 3.94159L1.313 4.59809ZM0.555226 6.46632L-0.101276 6.74394L0.555226 6.46632ZM4.99703 16.9704L4.34053 17.248L4.99703 16.9704ZM9.19103 1.26674L8.91342 0.610237L9.19103 1.26674ZM10.7554 6.79637L10.0989 7.07398L10.7554 6.79637ZM8.86098 11.4669L9.1386 12.1234L8.86098 11.4669ZM6.28745 7.13794L5.57917 7.21795L5.68627 8.16605L6.56506 7.79444L6.28745 7.13794ZM7.54794 6.60492L7.82555 7.26142L8.70978 6.88751L8.09605 6.14925L7.54794 6.60492ZM5.57009 6.06375L6.27988 6.12906L6.44482 4.33633L5.09738 5.53027L5.57009 6.06375ZM4.6462 7.83197L3.93741 7.75655L3.80938 8.95973L4.92381 8.48847L4.6462 7.83197ZM5.60469 7.42665L5.8823 8.08316L6.37532 7.87468L6.31256 7.34309L5.60469 7.42665ZM8.2307 6.3162L7.67763 6.76585L8.0153 7.18118L8.50831 6.9727L8.2307 6.3162ZM9.18919 5.91089L9.4668 6.56739L10.5812 6.09613L9.62883 5.34983L9.18919 5.91089ZM4.65464 8.60229L4.37703 7.94579L3.86445 8.16254L3.95041 8.71239L4.65464 8.60229ZM5.20987 9.9153L4.6403 10.3438L4.9749 10.7886L5.48748 10.5718L5.20987 9.9153ZM6.31936 9.44613L6.59697 10.1026L7.33785 9.78934L6.93768 9.09154L6.31936 9.44613ZM5.76413 8.13313L6.44927 7.93653L6.2274 7.16333L5.48652 7.47662L5.76413 8.13313ZM6.4272 7.85274L6.14959 7.19624L5.5877 7.43384L5.73571 8.02567L6.4272 7.85274ZM6.98243 9.16574L6.37492 9.53857L6.69551 10.061L7.26004 9.82224L6.98243 9.16574ZM8.51864 8.51613L8.79625 9.17263L9.37798 8.92663L9.20378 8.31953L8.51864 8.51613ZM7.96341 7.20312L8.58041 6.84623L8.26535 6.30155L7.6858 6.54662L7.96341 7.20312ZM9.18171 8.23574L8.49657 8.43234L8.71844 9.20554L9.45932 8.89224L9.18171 8.23574ZM10.2912 7.76657L10.5688 8.42307L11.0814 8.20632L10.9954 7.65647L10.2912 7.76657ZM9.73597 6.45357L10.3055 6.02502L9.97094 5.58031L9.45836 5.79707L9.73597 6.45357ZM5.75665 10.458L5.47904 9.80148L4.36461 10.2727L5.31701 11.019L5.75665 10.458ZM7.66884 11.0269L7.71537 11.7382L9.53768 11.619L8.11644 10.4722L7.66884 11.0269ZM6.71514 10.0527L7.27012 9.60538L6.93273 9.18676L6.43753 9.39616L6.71514 10.0527ZM8.58337 10.8104L8.1889 11.4041L9.07589 11.9935L9.2826 10.9488L8.58337 10.8104ZM8.65839 9.23093L9.36636 9.14824L9.25611 8.20428L8.38077 8.57443L8.65839 9.23093ZM9.34115 8.94221L9.06354 8.28571L8.56834 8.49511L8.63364 9.02879L9.34115 8.94221ZM9.36918 10.3079L8.6594 10.2426L8.49208 12.0611L9.84706 10.8368L9.36918 10.3079ZM10.2996 8.5369L11.0084 8.61232L11.1365 7.40914L10.022 7.88039L10.2996 8.5369ZM6.1337 14.168L5.85609 13.5115L5.19959 13.7891L5.4772 14.4456L6.1337 14.168ZM12.6987 11.3919L13.3552 11.1143L13.0776 10.4578L12.4211 10.7354L12.6987 11.3919ZM13.2539 12.7049L13.5316 13.3614L14.1881 13.0838L13.9104 12.4273L13.2539 12.7049ZM6.68893 15.481L6.03242 15.7586L6.31004 16.4151L6.96654 16.1375L6.68893 15.481ZM1.03539 3.94159C0.513046 4.16247 0.0998392 4.58181 -0.113327 5.10735L1.20771 5.64318C1.27877 5.468 1.4165 5.32822 1.59062 5.2546L1.03539 3.94159ZM-0.113327 5.10735C-0.326494 5.6329 -0.322159 6.22159 -0.101276 6.74394L1.21173 6.18871C1.1381 6.0146 1.13666 5.81836 1.20771 5.64318L-0.113327 5.10735ZM-0.101276 6.74394L4.34053 17.248L5.65354 16.6927L1.21173 6.18871L-0.101276 6.74394ZM4.34053 17.248C4.56141 17.7703 4.98075 18.1835 5.50629 18.3967L6.04212 17.0756C5.86694 17.0046 5.72716 16.8669 5.65354 16.6927L4.34053 17.248ZM5.50629 18.3967C6.03183 18.6099 6.62053 18.6055 7.14288 18.3846L6.58765 17.0716C6.41354 17.1453 6.2173 17.1467 6.04212 17.0756L5.50629 18.3967ZM7.14288 18.3846L15.0209 15.0533L14.4657 13.7403L6.58765 17.0716L7.14288 18.3846ZM15.0209 15.0533C15.5432 14.8324 15.9565 14.4131 16.1696 13.8875L14.8486 13.3517C14.7775 13.5269 14.6398 13.6666 14.4657 13.7403L15.0209 15.0533ZM16.1696 13.8875C16.3828 13.362 16.3785 12.7733 16.1576 12.2509L14.8446 12.8062C14.9182 12.9803 14.9196 13.1765 14.8486 13.3517L16.1696 13.8875ZM16.1576 12.2509L11.7158 1.7469L10.4028 2.30213L14.8446 12.8062L16.1576 12.2509ZM11.7158 1.7469C11.4949 1.22456 11.0755 0.811352 10.55 0.598186L10.0142 1.91922C10.1893 1.99028 10.3291 2.12801 10.4028 2.30213L11.7158 1.7469ZM10.55 0.598186C10.0245 0.385019 9.43576 0.389354 8.91342 0.610237L9.46864 1.92324C9.64276 1.84961 9.83899 1.84817 10.0142 1.91922L10.55 0.598186ZM8.91342 0.610237L1.03539 3.94159L1.59062 5.2546L9.46864 1.92324L8.91342 0.610237ZM6.36247 5.55842C7.05893 5.26391 7.84386 5.25813 8.54458 5.54236L9.08041 4.22132C8.02933 3.79499 6.85193 3.80366 5.80724 4.24542L6.36247 5.55842ZM8.54458 5.54236C9.2453 5.82658 9.80442 6.37752 10.0989 7.07398L11.4119 6.51875C10.9702 5.47406 10.1315 4.64765 9.08041 4.22132L8.54458 5.54236ZM10.0989 7.07398C10.3934 7.77044 10.3992 8.55537 10.115 9.25609L11.436 9.79192C11.8624 8.74084 11.8537 7.56345 11.4119 6.51875L10.0989 7.07398ZM10.115 9.25609C9.83077 9.95681 9.27983 10.5159 8.58337 10.8104L9.1386 12.1234C10.1833 11.6817 11.0097 10.843 11.436 9.79192L10.115 9.25609ZM8.58337 10.8104C7.88691 11.105 7.10198 11.1107 6.40126 10.8265L5.86543 12.1475C6.91651 12.5739 8.09391 12.5652 9.1386 12.1234L8.58337 10.8104ZM6.40126 10.8265C5.70054 10.5423 5.14142 9.99135 4.84691 9.29488L3.53391 9.85011C3.97567 10.8948 4.81435 11.7212 5.86543 12.1475L6.40126 10.8265ZM4.84691 9.29488C4.5524 8.59842 4.54662 7.81349 4.83084 7.11277L3.50981 6.57694C3.08347 7.62803 3.09214 8.80542 3.53391 9.85011L4.84691 9.29488ZM4.83084 7.11277C5.11507 6.41205 5.66601 5.85293 6.36247 5.55842L5.80724 4.24542C4.76255 4.68719 3.93614 5.52586 3.50981 6.57694L4.83084 7.11277ZM5.66174 5.42786C5.55496 6.00098 5.51026 6.60789 5.57917 7.21795L6.99573 7.05793C6.94617 6.61915 6.97589 6.15757 7.06319 5.68898L5.66174 5.42786ZM6.56506 7.79444L7.82555 7.26142L7.27032 5.94842L6.00984 6.48144L6.56506 7.79444ZM8.09605 6.14925C7.7102 5.68512 7.25504 5.28331 6.74662 4.95802L5.97832 6.15883C6.36318 6.40508 6.70774 6.70924 6.99982 7.06059L8.09605 6.14925ZM5.09738 5.53027C4.45115 6.10288 4.02846 6.90095 3.93741 7.75655L5.35498 7.90739C5.40708 7.41779 5.65319 6.94246 6.0428 6.59724L5.09738 5.53027ZM4.92381 8.48847L5.8823 8.08316L5.32708 6.77015L4.36858 7.17547L4.92381 8.48847ZM6.31256 7.34309C6.26221 6.91661 6.24441 6.51452 6.27988 6.12906L4.8603 5.99845C4.81279 6.51484 4.83927 7.0227 4.89682 7.51022L6.31256 7.34309ZM6.82283 5.89946C7.12875 6.1463 7.41173 6.43879 7.67763 6.76585L8.78377 5.86656C8.46908 5.47949 8.11694 5.11189 7.71803 4.79001L6.82283 5.89946ZM8.50831 6.9727L9.4668 6.56739L8.91158 5.25439L7.95308 5.6597L8.50831 6.9727ZM9.62883 5.34983C8.94552 4.81439 8.07473 4.57781 7.2239 4.63347L7.31696 6.056C7.85176 6.02101 8.36805 6.17299 8.74955 6.47194L9.62883 5.34983ZM3.95041 8.71239C3.99386 8.99032 4.06628 9.27895 4.19041 9.5725L5.50341 9.01727C5.43322 8.85127 5.38806 8.67884 5.35888 8.49219L3.95041 8.71239ZM4.19041 9.5725C4.31454 9.86604 4.47117 10.1191 4.6403 10.3438L5.77944 9.48675C5.66586 9.33579 5.57361 9.18328 5.50341 9.01727L4.19041 9.5725ZM5.48748 10.5718L6.59697 10.1026L6.04175 8.78963L4.93226 9.25879L5.48748 10.5718ZM6.93768 9.09154C6.82624 8.89721 6.73072 8.71691 6.65229 8.53145L5.33929 9.08667C5.44964 9.34763 5.57673 9.58397 5.70103 9.80072L6.93768 9.09154ZM6.65229 8.53145C6.57387 8.34599 6.51106 8.15185 6.44927 7.93653L5.07899 8.32973C5.14791 8.5699 5.22894 8.82572 5.33929 9.08667L6.65229 8.53145ZM5.48652 7.47662L4.37703 7.94579L4.93226 9.25879L6.04175 8.78963L5.48652 7.47662ZM5.73571 8.02567C5.79961 8.28119 5.88546 8.54816 5.99579 8.80906L7.30879 8.25384C7.23035 8.06832 7.16681 7.87221 7.11869 7.6798L5.73571 8.02567ZM5.99579 8.80906C6.10669 9.07132 6.23562 9.31159 6.37492 9.53857L7.58993 8.79291C7.48036 8.61437 7.38667 8.438 7.30879 8.25384L5.99579 8.80906ZM7.26004 9.82224L8.79625 9.17263L8.24103 7.85963L6.70481 8.50924L7.26004 9.82224ZM9.20378 8.31953C9.14022 8.09804 9.0639 7.82904 8.95005 7.5598L7.63705 8.11503C7.71197 8.29221 7.76635 8.47871 7.8335 8.71273L9.20378 8.31953ZM8.95005 7.5598C8.83628 7.29076 8.69455 7.04355 8.58041 6.84623L7.34642 7.56002C7.46247 7.76065 7.56204 7.93765 7.63705 8.11503L8.95005 7.5598ZM7.6858 6.54662L6.14959 7.19624L6.70481 8.50924L8.24103 7.85963L7.6858 6.54662ZM8.00815 7.27733C8.1196 7.47165 8.21512 7.65195 8.29355 7.83742L9.60655 7.28219C9.4962 7.02123 9.36911 6.7849 9.24481 6.56814L8.00815 7.27733ZM8.29355 7.83742C8.37197 8.02288 8.43478 8.21701 8.49657 8.43234L9.86684 8.03914C9.79793 7.79896 9.7169 7.54315 9.60655 7.28219L8.29355 7.83742ZM9.45932 8.89224L10.5688 8.42307L10.0136 7.11007L8.90409 7.57924L9.45932 8.89224ZM10.9954 7.65647C10.952 7.37854 10.8796 7.08991 10.7554 6.79637L9.44243 7.35159C9.51262 7.5176 9.55778 7.69002 9.58696 7.87667L10.9954 7.65647ZM10.7554 6.79637C10.6313 6.50282 10.4747 6.2498 10.3055 6.02502L9.1664 6.88212C9.27998 7.03308 9.37223 7.18559 9.44243 7.35159L10.7554 6.79637ZM9.45836 5.79707L8.34887 6.26623L8.90409 7.57924L10.0136 7.11007L9.45836 5.79707ZM5.31701 11.019C5.99777 11.5525 6.86104 11.7941 7.71537 11.7382L7.62231 10.3156C7.09101 10.3504 6.58035 10.1979 6.19629 9.89692L5.31701 11.019ZM8.11644 10.4722C7.81378 10.228 7.54079 9.94122 7.27012 9.60538L6.16017 10.4999C6.47562 10.8914 6.81908 11.2571 7.22125 11.5816L8.11644 10.4722ZM6.43753 9.39616L5.47904 9.80148L6.03426 11.1145L6.99275 10.7092L6.43753 9.39616ZM6.84539 10.2143C7.23996 10.6984 7.70561 11.083 8.1889 11.4041L8.97784 10.2168C8.57856 9.95146 8.23134 9.65828 7.95041 9.31362L6.84539 10.2143ZM9.2826 10.9488C9.3983 10.3641 9.43827 9.76389 9.36636 9.14824L7.95041 9.31362C8.00254 9.75993 7.97567 10.2095 7.88414 10.6721L9.2826 10.9488ZM8.38077 8.57443L7.12029 9.10744L7.67552 10.4204L8.936 9.88743L8.38077 8.57443ZM8.63364 9.02879C8.6851 9.44928 8.6956 9.84908 8.6594 10.2426L10.079 10.3732C10.1257 9.86485 10.1107 9.36228 10.0487 8.85563L8.63364 9.02879ZM9.84706 10.8368C10.4797 10.2651 10.9166 9.47556 11.0084 8.61232L9.59086 8.46147C9.53957 8.94343 9.28896 9.41971 8.89131 9.77903L9.84706 10.8368ZM10.022 7.88039L9.06354 8.28571L9.61876 9.59871L10.5773 9.1934L10.022 7.88039ZM6.41131 14.8245L12.9763 12.0484L12.4211 10.7354L5.85609 13.5115L6.41131 14.8245ZM12.0422 11.6695L12.5974 12.9825L13.9104 12.4273L13.3552 11.1143L12.0422 11.6695ZM12.9763 12.0484L6.41131 14.8245L6.96654 16.1375L13.5316 13.3614L12.9763 12.0484ZM7.34543 15.2034L6.7902 13.8904L5.4772 14.4456L6.03242 15.7586L7.34543 15.2034Z" fill="#797FB9" mask="url(#path-2-inside-1_564_923)"/>
<path d="M14.7301 18.1704L14.7298 18.1707C14.3052 18.6342 13.7017 18.8879 13.008 18.8879C12.762 18.8879 12.5293 18.8546 12.3129 18.7912C12.309 18.8123 12.305 18.8334 12.3009 18.8546M14.7301 18.1704L11.9509 18.7874M14.7301 18.1704C15.1423 17.7196 15.3245 17.1373 15.3245 16.5713C15.3245 16.335 15.2307 16.1084 15.0636 15.9413C14.8965 15.7742 14.6698 15.6804 14.4335 15.6804C14.1972 15.6804 13.9706 15.7742 13.8035 15.9413L14.0555 16.1933L13.8035 15.9413C13.6364 16.1084 13.5426 16.335 13.5426 16.5713C13.5426 16.765 13.4816 16.895 13.4151 16.9679C13.3602 17.0275 13.2504 17.1059 13.008 17.1059C12.8917 17.1059 12.8119 17.0852 12.7563 17.0605C12.7032 17.0368 12.6618 17.0048 12.6272 16.9667C12.5395 16.8586 12.4868 16.7264 12.4762 16.5877V15.1458C12.4762 14.8149 12.6077 14.4977 12.8416 14.2637C13.0755 14.0298 13.3928 13.8984 13.7236 13.8984H15.9938C16.2907 13.8984 16.5809 13.9806 16.8332 14.1362L16.8335 14.1364L18.8065 15.3502L18.9932 15.0467L18.8065 15.3502C18.8324 15.3662 18.8538 15.3885 18.8687 15.4151C18.8835 15.4417 18.8913 15.4716 18.8913 15.5021V15.5022V16.5713C18.8913 16.9022 18.7599 17.2194 18.526 17.4534C18.292 17.6873 17.9748 17.8187 17.6439 17.8187H17.4657H17.1093V18.1751V24.9701V25.294L17.4318 25.3249C18.0408 25.3831 18.4158 25.559 18.6352 25.865C18.7705 26.0541 18.8318 26.2746 18.8622 26.5076C18.8908 26.7319 18.8913 26.982 18.8913 27.2389V27.2631C18.8913 27.3104 18.8725 27.3557 18.8391 27.3891C18.8057 27.4225 18.7604 27.4413 18.7131 27.4413H16.7515V27.246L16.7515 27.2335C16.7517 26.8352 16.7521 25.5992 15.6823 24.8006V22.9885C15.6823 22.7522 15.5885 22.5256 15.4214 22.3585C15.2543 22.1914 15.0277 22.0976 14.7914 22.0976C14.5551 22.0976 14.3284 22.1914 14.1613 22.3585C13.9943 22.5256 13.9004 22.7522 13.9004 22.9885V24.2285C13.8505 24.2285 13.8007 24.2296 13.7508 24.2317C13.7311 24.232 13.7128 24.233 13.7016 24.2338H13.6965H13.6387L13.6213 24.2396C13.4056 24.2645 13.2058 24.3675 13.06 24.5301C12.9023 24.7061 12.821 24.9375 12.8339 25.1735C12.8468 25.4094 12.9529 25.6306 13.1289 25.7883C13.3022 25.9436 13.5292 26.0249 13.7614 26.015H13.7687L13.7823 26.014L13.785 26.0138L13.8141 26.0126L13.8141 26.0126L13.8172 26.0125C13.8391 26.0114 13.8701 26.0108 13.9004 26.0108C14.1709 26.0108 14.3113 26.0568 14.3778 26.0915L14.3794 26.0924L14.4029 26.1045L14.4092 26.1077L14.4156 26.1107C14.6931 26.24 14.8208 26.4196 14.8886 26.6072C14.9625 26.8118 14.9696 27.0372 14.9696 27.2631V27.4413M14.7301 18.1704L14.9696 27.4413M12.3009 18.8546C12.3009 18.8547 12.3009 18.8549 12.3008 18.855L11.9509 18.7874M12.3009 18.8546C12.3009 18.8545 12.301 18.8544 12.301 18.8543L11.9509 18.7874M12.3009 18.8546C12.1257 19.7708 11.7785 20.7493 11.102 21.4354L11.102 21.4355C10.3527 22.1951 9.98742 23.3065 9.80635 24.2053M11.9509 18.7874C11.7813 19.6748 11.4527 20.5722 10.8482 21.1852C10.025 22.0199 9.6422 23.2152 9.45687 24.1354M9.80635 24.2053C9.80638 24.2051 9.80642 24.205 9.80645 24.2048L9.45687 24.1354M9.80635 24.2053C9.80632 24.2054 9.80629 24.2056 9.80625 24.2058L9.45687 24.1354M9.80635 24.2053C9.7081 24.7003 9.64839 25.2022 9.62774 25.7065M9.45687 24.1354C9.35483 24.6495 9.29287 25.1706 9.27155 25.6943M9.27155 25.6943L9.6278 25.7042L9.62774 25.7065M9.27155 25.6943L9.2687 25.7962M9.27155 25.6943L9.62765 25.7088C9.62768 25.708 9.62771 25.7073 9.62774 25.7065M9.62774 25.7065L9.62509 25.8012M9.2687 25.7962H9.62509V25.8012M9.2687 25.7962V25.8212C9.25532 25.992 9.21011 26.1588 9.13541 26.313C9.07625 26.4334 8.99855 26.5332 8.89948 26.6031C8.80539 26.6694 8.66426 26.7285 8.43688 26.7285M9.2687 25.7962L9.62495 25.8062L9.62509 25.8012M9.62509 25.8012V25.8212V25.8351L9.624 25.849C9.60715 26.0641 9.55022 26.2742 9.45615 26.4684L9.45531 26.4701C9.37648 26.6306 9.26377 26.7823 9.10484 26.8944L9.10474 26.8944C8.94656 27.0059 8.73275 27.0849 8.43715 27.0849M8.43715 27.0849L8.43688 26.7285M8.43715 27.0849C8.43706 27.0849 8.43697 27.0849 8.43688 27.0849V26.7285M8.43715 27.0849C7.99505 27.0853 7.56505 26.9405 7.21316 26.6729C6.86127 26.4052 6.60693 26.0295 6.48919 25.6034C6.37145 25.1772 6.39682 24.7242 6.56139 24.3139C6.72597 23.9036 7.02066 23.5586 7.40023 23.3319L7.58296 23.6379M8.43688 26.7285C8.0728 26.7288 7.71869 26.6096 7.42891 26.3892C7.13912 26.1688 6.92967 25.8594 6.83271 25.5085C6.73576 25.1575 6.75664 24.7845 6.89217 24.4466C7.0277 24.1087 7.27038 23.8246 7.58296 23.6379M7.58296 23.6379C7.70461 23.5649 7.79229 23.4466 7.82671 23.309C7.86113 23.1714 7.83947 23.0257 7.7665 22.9041C7.69353 22.7824 7.57523 22.6948 7.43761 22.6603C7.29999 22.6259 7.15434 22.6476 7.03269 22.7205L7.58296 23.6379ZM7.58296 23.6379L7.39963 23.3323C7.44023 23.3079 7.46948 23.2684 7.48097 23.2225C7.49245 23.1766 7.48523 23.128 7.46088 23.0874C7.43653 23.0468 7.39705 23.0176 7.35113 23.0061C7.30521 22.9946 7.25661 23.0018 7.21602 23.0262L7.21555 23.0264C6.76916 23.2933 6.42266 23.6992 6.22923 24.182C6.03579 24.6647 6.00612 25.1976 6.14474 25.6989C6.28337 26.2001 6.58265 26.642 6.99665 26.9568C7.41065 27.2716 7.9165 27.4418 8.43657 27.4413H8.43688H14.9696M7.58296 23.6379L14.9696 27.4413M11.9742 18.6615C11.9965 18.5352 12.0154 18.4109 12.0315 18.2899C12.1371 18.3488 12.2504 18.398 12.371 18.4364L11.9742 18.6615Z" fill="#F3F5FF" stroke="#797FB9" stroke-width="0.712786"/>
</svg>
