<svg width="11" height="14" viewBox="0 0 11 14" fill="none" xmlns="http://www.w3.org/2000/svg">
<path d="M5.5384 7.09951C4.81245 7.09951 4.21849 6.50555 4.21849 5.77961C4.21849 5.05366 4.81245 4.45971 5.5384 4.45971C6.26434 4.45971 6.8583 5.05366 6.8583 5.77961C6.8583 6.50555 6.26434 7.09951 5.5384 7.09951ZM9.4981 5.9116C9.4981 3.51598 7.74923 1.8199 5.5384 1.8199C3.32756 1.8199 1.57869 3.51598 1.57869 5.9116C1.57869 7.45588 2.8656 9.50173 5.5384 11.9436C8.2112 9.50173 9.4981 7.45588 9.4981 5.9116ZM5.5384 0.5C8.31019 0.5 10.818 2.62504 10.818 5.9116C10.818 8.10264 9.05594 10.6962 5.5384 13.699C2.02086 10.6962 0.258789 8.10264 0.258789 5.9116C0.258789 2.62504 2.7666 0.5 5.5384 0.5Z" fill="#797FB9"/>
</svg>
