<svg width="23" height="22" viewBox="0 0 23 22" fill="none" xmlns="http://www.w3.org/2000/svg">
    <path fill-rule="evenodd" clip-rule="evenodd" d="M10.4183 5.93615C11.7116 6.51377 12.2919 8.03048 11.7142 9.32383C11.1366 10.6172 9.61991 11.1974 8.32657 10.6198C7.03322 10.0422 6.45301 8.52544 7.03062 7.2321C7.60824 5.93875 9.12495 5.35854 10.4183 5.93615ZM11.766 2.91859C14.7259 4.2405 16.0537 7.71159 14.7318 10.6715C14.3757 11.4688 13.8638 12.1476 13.2478 12.6882L16.7863 19.539L13.85 21.0556L10.2484 14.0825C9.175 14.2456 8.04387 14.113 6.9789 13.6373C4.019 12.3154 2.69115 8.84434 4.01306 5.88444C5.33497 2.92453 8.80606 1.59668 11.766 2.91859Z" fill="#4992FF"/>
    <rect x="5.30566" y="13.9512" width="3.21435" height="6.83543" transform="rotate(19.9162 5.30566 13.9512)" fill="#292C45"/>
    <circle cx="9.37519" cy="8.29328" r="1.51789" fill="#292C45"/>
</svg>
