<svg viewBox="0 0 15 16" fill="currentColor" xmlns="http://www.w3.org/2000/svg">
<path d="M11.8374 11.2933L15 14.4552L13.9552 15.5L10.7933 12.3374C9.61682 13.2805 8.15349 13.7935 6.64566 13.7913C2.97726 13.7913 0 10.8141 0 7.14566C0 3.47726 2.97726 0.5 6.64566 0.5C10.3141 0.5 13.2913 3.47726 13.2913 7.14566C13.2935 8.65349 12.7805 10.1168 11.8374 11.2933ZM10.3562 10.7454C11.2933 9.78169 11.8166 8.48988 11.8145 7.14566C11.8145 4.2895 9.50108 1.97681 6.64566 1.97681C3.7895 1.97681 1.47681 4.2895 1.47681 7.14566C1.47681 10.0011 3.7895 12.3145 6.64566 12.3145C7.98988 12.3166 9.28169 11.7933 10.2454 10.8562L10.3562 10.7454Z" fill="currentColor"/>
</svg>
